<?xml version="1.0" standalone="no"?>
<!DOCTYPE svg PUBLIC "-//W3C//DTD SVG 20010904//EN"
 "http://www.w3.org/TR/2001/REC-SVG-20010904/DTD/svg10.dtd">
<svg version="1.0" xmlns="http://www.w3.org/2000/svg"
 width="300.000000pt" height="300.000000pt" viewBox="0 0 300.000000 300.000000"
 preserveAspectRatio="xMidYMid meet">
<metadata>
Created by potrace 1.10, written by Peter Selinger 2001-2011
</metadata>
<g transform="translate(0.000000,300.000000) scale(0.100000,-0.100000)"
fill="#f5c014" stroke="none">
<path d="M1465 2241 c-6 -5 -111 -60 -235 -124 -631 -322 -649 -332 -636 -344
4 -4 388 189 661 332 148 78 196 102 221 109 14 4 44 -5 90 -30 81 -43 237
-125 419 -219 72 -37 162 -84 200 -105 39 -21 124 -65 190 -99 66 -34 125 -65
131 -69 5 -4 67 -36 137 -72 69 -36 134 -70 143 -77 20 -15 13 -39 -26 -80
-26 -27 -35 -32 -63 -27 l-32 6 29 -26 c30 -27 42 -25 66 8 8 12 31 40 52 62
21 23 38 45 37 50 0 5 -67 42 -147 82 -81 40 -187 94 -237 121 -49 26 -157 83
-240 126 -82 43 -186 97 -230 120 -44 23 -141 74 -215 112 -74 39 -170 89
-212 112 -81 44 -89 46 -103 32z"/>
<path d="M1435 2042 c-41 -17 -182 -89 -380 -192 -190 -99 -409 -213 -442
-229 -17 -9 -42 -29 -54 -45 -23 -29 -23 -34 -20 -240 2 -176 5 -214 18 -228
15 -17 72 -18 932 -18 786 1 919 3 935 15 22 17 24 37 26 267 2 156 2 157 -25
190 -18 23 -72 57 -168 106 -78 40 -149 77 -157 82 -23 14 -372 196 -491 256
-58 30 -112 54 -120 53 -8 0 -32 -8 -54 -17z m275 -114 c58 -31 173 -90 255
-133 83 -44 218 -114 300 -156 l150 -78 3 -225 2 -226 -930 0 -930 0 2 231 3
232 140 71 c573 294 699 359 737 380 l43 24 60 -33 c33 -18 107 -57 165 -87z"/>
<path d="M340 1825 c0 -133 -3 -175 -12 -175 -7 0 -26 -7 -43 -16 -16 -9 -65
-34 -107 -56 -43 -21 -78 -42 -78 -45 0 -3 18 -24 39 -46 21 -23 49 -54 62
-69 l24 -28 49 31 c57 36 54 48 -5 25 l-42 -17 -29 28 c-36 34 -50 57 -43 75
3 7 41 31 85 52 44 22 92 52 106 67 26 27 26 31 28 171 l1 143 80 0 80 0 3
-90 c3 -84 7 -104 16 -94 2 2 6 52 8 112 l5 107 -114 0 -113 0 0 -175z"/>
<path d="M346 1438 c-3 -13 -6 -130 -6 -260 l0 -238 1153 0 1152 0 -3 227 c-2
235 -5 273 -22 273 -6 0 -10 -88 -10 -235 l0 -235 -47 0 c-50 0 -1995 0 -2120
0 l-73 0 0 245 c0 222 -7 286 -24 223z"/>
</g>
</svg>
